<svg width="49" height="49" viewBox="0 0 49 49" fill="none" xmlns="http://www.w3.org/2000/svg">
<g clip-path="url(#clip0_6_673)">
<path d="M11.6397 20.1343C11.3354 19.8454 11.0931 19.4929 10.9301 19.104C10.7065 19.0341 10.4735 18.9992 10.2406 18.9992C9.92229 19.0294 9.79495 19.058 9.54184 19.1675C9.55581 19.3501 9.63812 19.6056 9.81669 20.0343C9.26854 19.9994 8.71573 19.0881 8.66138 18.8135C8.96573 18.6579 9.28717 18.5452 9.62103 18.4769C10.5714 18.2848 11.3618 18.5182 11.7609 18.6706C11.5667 19.131 11.5248 19.6453 11.6397 20.1343Z" fill="white"/>
<path d="M13.4601 18.7151C13.4306 18.5834 13.3995 18.45 13.37 18.3183C13.1262 18.7104 12.8389 19.0199 12.1666 19.3184C13.8856 19.3739 14.485 18.7675 14.8452 18.0357C14.3716 18.3389 14.0377 18.5183 13.4601 18.7151Z" fill="white"/>
<path d="M18.594 18.6341C17.8285 18.6786 16.6483 18.2976 16.3626 18.5404C16.799 16.7958 19.5506 18.0023 20.1314 16.3148C19.9621 17.1403 20.1314 17.5403 18.7136 18.1785C18.7136 18.1785 19.0972 18.4373 19.2338 18.4357L18.594 18.6341Z" fill="white"/>
<path d="M10.1245 16.8515C10.4848 17.1404 11.3124 16.9277 11.4429 16.8436C11.1509 17.4103 10.4289 17.6056 10.1245 16.8515Z" fill="white"/>
<path d="M16.9962 15.5243C16.976 15.3434 16.8316 15.2021 16.653 15.1925C16.4822 15.3497 16.2493 15.5243 16.0738 15.3815C16.139 15.1687 16.6996 14.8258 17.1173 14.5941C17.1748 14.7258 17.1996 14.8687 17.1918 15.0116C17.1779 15.1989 17.1111 15.3783 16.9962 15.5243Z" fill="white"/>
<path d="M26.2605 8.95517C23.8831 9.06312 22.1268 10.1077 21.074 12.2096C21.5119 11.792 21.9669 11.4174 22.4731 11.1713C22.1346 11.6603 21.8271 12.3239 21.7464 12.8969C21.8659 13.4589 22.3504 13.9145 22.4607 13.9907C22.7681 12.0762 23.5709 10.5268 26.2605 8.95517Z" fill="white"/>
<path d="M19.0807 9.82509C18.4223 10.2363 17.7453 10.8157 17.0589 11.9952C17.8182 9.36789 20.0683 6.68342 23.452 5.92776C21.1382 7.33906 20.0854 9.44409 20.2236 10.8744C20.0124 11.2205 19.1257 11.6412 18.4673 11.9682C18.5776 11.1062 18.8043 10.3807 19.0807 9.82509Z" fill="white"/>
<path d="M8.89974 27.2559C8.12177 26.3494 7.65592 23.9269 8.07674 21.9917C8.20562 23.1141 8.52551 24.3381 9.68703 25.3858C11.2057 25.1699 11.406 25.5255 11.3517 25.5255C9.92307 26.1145 9.69169 26.578 8.89974 27.2559Z" fill="white"/>
<path d="M12.729 47.1252C14.9309 44.2915 16.254 40.8498 16.5304 37.2414C16.5304 37.2414 14.4216 38.84 12.6653 40.2973C13.8113 38.2764 15.0241 35.6538 15.7959 32.5376C16.4046 30.0769 16.5956 27.8862 16.5971 26.0685C16.8968 26.613 17.2882 27.3671 17.6888 28.2846C18.0475 29.1038 18.8146 30.8612 19.1547 32.6693C19.7106 35.6189 19.0118 38.0954 18.7447 39.0146C17.3611 43.7692 13.875 46.3473 12.729 47.1252Z" fill="white"/>
<path d="M21.8888 27.5862L20.2117 27.5799C20.2645 26.5369 20.4912 25.5113 20.881 24.5461C21.749 25.2859 22.1373 26.4591 21.8888 27.5862Z" fill="white"/>
<path d="M25.9275 31.2373C26.0191 30.723 26.1185 29.0497 26.1123 28.8259L26.5331 27.4416C26.6263 28.756 26.4058 30.0165 25.9275 31.2373Z" fill="white"/>
<path d="M22.7708 31.7929L20.6248 31.1293C20.749 30.4054 20.7708 29.8625 20.7522 29.2212L21.173 29.7498L22.3065 28.2258C22.9603 29.291 23.128 30.5928 22.7708 31.7929Z" fill="white"/>
<path d="M24.0014 36.5078C22.8554 36.4094 21.7451 36.0586 20.7451 35.4791C20.9423 34.9505 21.0106 34.506 21.0199 33.9218C21.0199 33.9218 21.7296 34.4457 21.8895 34.4076C21.9889 34.2234 22.1038 34.0313 22.2342 33.8377C22.6364 33.2408 23.124 32.7121 23.683 32.266C24.1675 33.6233 24.2793 35.0902 24.0014 36.5078Z" fill="white"/>
<path d="M44.0858 28.4785C43.9414 28.3769 43.6541 26.764 43.6541 26.764C43.5268 27.9578 43.2302 29.1262 42.7721 30.2311C41.4631 33.3775 39.1835 35.1476 38.0515 35.9048C37.5763 33.5823 37.7657 31.1677 38.5965 28.9532C38.5623 29.7326 38.8263 30.4962 39.3326 31.0804C41.0888 27.5149 42.0625 23.6001 42.1851 19.6107C42.7364 20.1711 43.7364 21.3411 44.2644 23.1397C45.0004 25.6416 44.3467 27.753 44.0858 28.4785Z" fill="white"/>
<path d="M33.8064 8.81518C33.4321 10.1614 33.5874 10.7011 33.4911 11.3679C33.4911 11.3679 32.9383 10.9329 32.7085 9.20729L33.0657 9.76768C33.2613 8.6088 33.0206 7.84203 33.3809 7.36896C36.0657 8.00079 38.5534 11.2822 36.0844 18.6037C36.0378 17.5576 37.7211 10.9472 33.8064 8.81518Z" fill="white"/>
<path d="M32.8861 3.97512C31.5693 5.25148 31.4357 6.1627 31.0755 7.86134C30.7649 6.67388 30.7602 5.45309 31.1981 3.77986C32.4358 3.51633 32.7789 3.83224 32.8861 3.97512Z" fill="white"/>
<path d="M23.3374 23.7602C19.1804 24.7349 18.5966 21.7679 17.6711 22.4346C17.2456 22.7362 18.1245 23.2903 18.1245 23.2903C17.9879 23.4681 15.508 23.803 15.6275 22.1536C15.7626 21.4535 16.3403 21.0932 17.2875 21.017C19.9165 21.0979 19.8311 23.6475 23.3374 23.7602Z" fill="white"/>
<path d="M17.9724 18.9422C15.0438 19.3216 15.3854 23.2412 12.1275 22.322C12.0545 22.3871 11.9443 22.6776 11.9955 23.1317C11.8698 23.0602 11.3589 22.8681 11.1679 21.9442C10.9396 22.5427 10.8294 23.2253 11.5157 23.8556C11.2968 23.8841 10.3915 23.692 10.1119 22.7713C10.1119 22.7713 9.96131 22.9729 9.79671 23.1078C9.63832 22.8411 9.53583 22.3315 9.64609 22.0283C9.79205 22.0712 10.1259 21.9728 10.1259 21.9728C8.87588 21.4918 8.9178 20.6631 8.88519 20.1027C10.0622 20.7345 10.6616 20.8234 10.6616 20.8234C10.6616 20.8234 10.511 20.5456 10.3557 20.2249C11.7331 20.7948 13.0033 21.0425 14.6136 19.7709C16.6603 18.2167 17.9926 16.0625 18.1262 15.6339C18.1262 15.6339 17.6417 15.7736 17.3032 15.7593C17.5097 15.2592 17.623 15.1132 17.7147 14.4543C17.7147 14.4543 17.929 14.8004 17.9616 14.9782C18.0019 14.8068 18.1215 14.4178 18.1262 14.0194C17.6324 13.9813 17.2069 14.1083 16.2332 14.7909C16.2643 14.5893 16.3202 14.3908 16.3978 14.2019C15.4382 14.9735 15.7193 15.6402 14.0655 15.7021C13.7099 15.7243 11.8635 15.6878 11.1027 14.783C12.289 14.3686 15.1633 13.3733 15.7814 11.3539C15.9118 12.0477 15.7752 12.9526 15.3699 13.8225C15.7953 13.3875 16.3994 12.897 16.564 12.0969C17.0718 12.6303 17.2022 12.8621 18.4445 13.1351C18.4538 13.1224 18.1976 12.8684 18.0609 12.6446C18.5408 12.5811 19.2753 12.5668 19.7753 12.308C19.7473 12.9176 20.0424 13.5907 20.2831 13.8225C20.2831 13.8225 20.0362 12.6938 20.4477 11.9572C20.4958 12.7922 20.7489 13.578 21.3126 13.9067L21.4151 13.4018C21.6822 14.0337 22.2179 14.4686 22.2179 14.4686C20.9151 14.4972 19.6588 15.0163 19.3498 16.172C23.8298 15.5894 24.5161 13.9908 24.8655 11.7334C25.0503 13.0589 25.2366 15.2735 23.4943 16.18C23.8996 16.2149 24.2723 16.0545 24.8795 15.8577C23.4245 17.8849 22.4648 16.0545 21.5595 17.6817C22.2738 18.0675 22.4648 18.2564 22.4648 18.2564C22.4648 18.2564 21.4912 18.2501 21.0797 18.5787C21.0455 18.9232 21.6899 19.6518 22.4928 20.29C19.6324 20.3376 19.8514 19.4185 17.9724 18.9422Z" fill="white"/>
<path d="M28.0614 13.4256C27.1607 13.4685 26.7974 13.4732 26.1669 13.0351C25.9961 12.9049 25.92 12.5874 25.8346 12.235C25.7694 11.8603 25.8921 11.5555 25.7632 11.3158C25.611 11.0475 25.3998 10.8173 25.1483 10.6443C25.3625 10.5887 25.9946 10.457 26.3921 10.8126C26.6235 11.019 26.8036 11.3111 26.8362 11.846C26.9045 12.9621 27.1017 12.7986 28.0614 13.4256Z" fill="white"/>
<path d="M7.9664 41.2278C8.85618 43.2868 10.0037 44.7806 10.673 45.5728C9.45247 44.7838 8.3189 43.8615 7.29557 42.8201C6.50362 42.0136 4.89177 40.2372 3.76596 37.9417C3.49887 37.3987 3.26594 36.8399 3.06718 36.2668C2.07025 33.4093 2.05473 30.6502 2.23175 28.7373C2.29076 28.1007 2.37151 27.5578 2.44294 27.1355C1.387 28.0007 0.567102 29.1294 0.0639802 30.4121C-0.328889 26.8005 1.1665 23.4763 3.42278 19.906C4.38554 18.3836 4.62468 17.4581 4.90575 16.5595C5.56881 14.4561 5.59676 12.5828 5.51446 11.3255C5.59987 11.7526 5.68527 12.1796 5.77068 12.6066C6.4648 16.0738 5.29396 17.2644 5.22253 21.1538C5.16818 24.0557 5.68838 26.1576 5.9741 27.1466C6.16355 27.7975 6.353 28.3277 6.49275 28.6881C6.603 27.7832 6.72878 26.999 7.19774 26.3338C7.19774 26.3338 7.29402 28.3849 8.57822 29.9375C9.13103 28.8675 10.8826 27.7165 11.4044 27.4165C9.83137 29.9136 8.4866 33.0172 9.07979 37.313C7.46328 35.4128 7.27228 33.3744 7.12321 31.7028C6.81264 32.9743 6.67133 34.284 6.70394 35.5953C6.75518 37.6019 7.21327 39.3752 7.82043 40.8722C7.86702 40.996 7.91671 41.1135 7.9664 41.2278Z" fill="white"/>
<path d="M21.8896 27.5862C21.9657 26.2495 21.2825 25.1732 20.8818 24.5461C22.0651 24.6938 22.6723 25.5209 22.9782 26.1876C22.9782 26.1876 22.3508 27.3084 21.8896 27.5862Z" fill="white"/>
<path d="M23.7998 28.8912C23.7951 28.9626 23.7966 29.0325 23.8044 29.1039C23.8339 29.2944 24.2796 29.8262 24.2936 30.0691C24.3231 30.3723 23.1538 31.6852 22.7718 31.7931C22.7671 30.6343 22.9954 30.2263 22.309 28.2276C23.514 27.3656 24.7144 25.8241 25.3914 23.7207C25.4986 25.7638 24.8852 27.445 23.7998 28.8912Z" fill="white"/>
<path d="M25.6005 34.9043C25.0958 35.4679 24.5616 36.0029 23.9995 36.5077C24.1548 35.0409 24.0958 33.6185 23.6796 32.2675C24.1827 31.8627 24.6346 31.3975 25.0259 30.88C26.0089 29.5798 26.3785 28.2511 26.5338 27.4431C26.5136 28.0304 26.4918 28.6178 26.4716 29.2052C26.2605 30.6038 25.7247 31.9309 24.9064 33.0724C25.1657 33.4819 25.4825 34.0995 25.6005 34.9043Z" fill="white"/>
<path d="M48.4222 22.649C47.7265 21.0488 46.2187 18.1897 43.2109 15.7878C41.7543 14.6274 40.1269 13.713 38.3877 13.0796C39.1704 16.3197 38.1501 20.0503 35.3115 25.1065H35.3131C35.9544 24.7065 36.6641 24.435 37.4048 24.3064C34.8752 26.7496 34.3348 29.3658 34.4187 33.8584C33.9155 33.2996 33.1888 31.5534 33.1888 31.5534C33.0351 32.2265 32.9683 32.9155 32.9932 33.606C33.0739 35.8111 34.0584 36.6985 34.2727 38.6178C34.4202 39.9338 34.1143 40.9197 33.7183 42.1944C32.8612 44.9551 31.2322 46.8125 30.1608 47.8285C31.7897 44.1756 32.1748 40.0719 31.2555 36.1682C30.8595 34.8189 30.2493 32.3598 30.726 29.3451C31.0847 27.0782 31.8798 24.9255 32.8208 23.2063C32.9388 23.0412 33.0506 25.0001 33.2059 25.0017C33.6795 23.8619 35.4296 18.9136 33.9466 14.2861C33.2261 12.7906 32.4046 10.4586 32.6717 7.68204C32.7136 7.23754 32.7835 6.7978 32.8767 6.36124C33.768 7.18515 35.1858 8.26307 37.1408 8.80917C38.6331 9.2251 39.2076 8.98856 40.4452 9.30923C43.1161 10.003 44.7389 12.2271 45.7016 13.559C48.2856 17.1388 48.4455 21.0615 48.4222 22.649Z" fill="white"/>
<path d="M31.3083 6.75966C31.2307 7.12637 31.153 7.49309 31.0754 7.86139C30.9046 7.00255 30.6934 5.32931 31.254 3.37033C31.5785 2.24161 32.1096 1.18592 32.8177 0.25882C33.5661 3.07823 34.5118 5.38488 37.9855 7.02953C36.6998 6.99302 33.8053 6.61361 32.9093 3.92437C32.1655 4.72606 31.5319 5.65158 31.3083 6.75966Z" fill="white"/>
<path d="M30.9116 22.9143C30.2159 24.4939 29.1227 25.4114 28.5575 25.8242C29.1833 23.8033 29.2066 21.6363 28.6258 19.6012C28.5 19.9615 28.4379 20.4632 28.0901 21.1093C27.7531 19.009 26.9549 17.5311 25.7437 16.1023C26.5326 16.0817 27.3214 16.1166 28.1056 16.2055L26.5217 14.7863C27.1475 14.9371 28.1925 15.2752 29.2361 16.0975C29.8572 16.5865 31.0234 17.5072 31.4302 19.1424C31.8448 20.7981 31.233 22.184 30.9116 22.9143Z" fill="white"/>
<path d="M15.7974 23.5951C15.1872 24.1634 14.4961 23.9237 14.3502 23.7665C14.2523 23.6618 14.2384 23.5379 14.0924 23.3268C14.0085 23.2046 13.8579 23.0744 13.5411 22.9394C15.184 22.5791 14.6701 23.6903 15.7974 23.5951Z" fill="white"/>
<path d="M24.7434 23.0583C24.3256 22.3186 23.762 21.9566 23.3241 21.9439C23.265 22.1058 23.175 22.4884 23.0011 22.7916C22.4281 22.7361 22.1781 22.6234 21.7867 22.3217C22.0305 21.8645 23.1362 20.585 23.4405 20.4008C24.1797 21.1009 24.762 21.8963 24.7434 23.0583Z" fill="white"/>
<path d="M3.96411 8.1995C3.87405 8.72338 3.81349 9.25361 3.78553 9.78384C3.70479 11.2777 3.8787 12.7366 3.81504 12.7414H3.81349C2.95321 11.6571 0.630156 8.11378 1.41124 2.85278C4.99209 6.03732 8.77016 9.19805 13.7874 10.9602C12.1693 10.957 10.5575 10.7475 8.99067 10.3347C7.22508 9.86797 5.53248 9.14883 3.96411 8.1995Z" fill="white"/>
<path d="M20.3503 21.3453C19.1453 20.2468 18.3767 19.9801 16.6732 20.5976C16.8704 19.7039 17.8534 19.3213 18.5941 19.307C17.4186 19.0736 17.1763 19.2689 16.3626 19.6435C14.2818 20.1341 14.3641 22.3201 12.1187 21.3644C12.0659 21.4215 11.8687 21.5485 11.6622 21.6263C11.5659 21.439 11.4603 21.0675 11.3516 20.9151C11.2165 20.9786 10.9308 21.2628 10.5472 21.458C10.319 21.5438 9.30341 21.3723 9.11085 20.4468C9.56428 20.6357 10.277 20.7659 10.7025 20.8357C10.5239 20.5722 10.4354 20.4992 10.4416 20.2468C12.1296 21.0008 13.288 20.8072 14.5986 19.7832C14.2321 19.9134 13.507 20.0245 13.0892 19.9372C14.9651 19.1101 15.9294 17.7846 16.2446 17.0051C14.9138 18.4751 13.5054 16.921 12.1839 17.3972C12.5069 17.4496 13.0691 17.4496 13.2911 17.8274C13.1591 17.983 12.9572 18.0322 12.8159 18.1084C11.7088 18.3465 10.451 17.094 8.38878 18.0338C7.98038 17.7084 7.99746 17.5004 8.00523 17.4544C8.93383 17.4115 9.09533 16.8178 9.08446 16.7813C8.86085 17.0337 8.1248 17.1607 7.85926 16.8559C7.80802 16.7955 7.85926 16.2574 7.85926 16.2574C8.18846 15.6303 11.5504 16.1971 11.7057 16.4161C11.746 16.4384 11.1528 16.2002 11.1575 16.051C11.1715 15.9065 11.1994 15.724 11.3501 15.5462C11.583 15.5382 12.3423 15.5843 12.6808 15.5748C12.6451 15.4573 12.5209 15.3144 12.5442 15.0985C13.1203 15.0652 13.8331 14.6318 14.6017 14.454C14.5644 14.6969 14.3113 14.962 14.4262 15.1318C14.5427 15.1144 14.7663 15.1318 15.316 15.0398C15.0738 15.3557 14.6297 15.589 14.0644 15.7081C14.2942 15.9034 14.8983 15.9399 15.2741 15.9542C15.2322 16.1685 15.1064 16.3288 15.0955 16.4876C15.8502 15.67 16.5629 16.286 17.7167 16.0383C18.3658 15.1541 18.6841 14.2428 19.4047 14.2428C19.2028 14.5333 18.9559 15.7907 19.1298 16.5019C20.7696 13.7809 23.9048 17.0273 24.8008 11.6965C24.8474 11.8822 24.8846 12.5029 24.9188 12.6315L24.7542 12.6172C24.3567 16.4812 20.7199 15.6938 20.1687 16.5098C20.1252 16.4828 20.1888 16.2463 20.136 16.3161C19.3969 18.2005 16.9962 16.667 16.3673 18.5418C16.8456 18.3338 17.6344 18.6799 18.5987 18.6355C19.6096 18.2989 19.8503 18.3053 20.5382 18.056C20.2649 18.645 20.1376 18.6434 19.7882 19.0292C20.237 19.4038 20.7153 19.7404 21.2153 20.0388C20.914 20.0626 20.619 20.0737 20.2634 19.9642C20.3472 20.3166 20.428 20.8421 20.3503 21.3453Z" fill="white"/>
<path d="M22.6096 9.50299C22.5661 9.50299 21.2369 9.4252 21.257 9.63634C20.9946 9.58713 20.9092 9.20613 21.1825 8.93466C21.9185 9.02991 22.3549 9.23311 22.6096 9.50299Z" fill="white"/>
<path d="M48.7166 25.3018C48.653 27.5466 48.2337 31.8249 45.7786 36.4144C42.8608 41.869 38.693 44.7234 36.769 45.8743C37.0563 44.3916 37.4368 42.7787 37.9445 41.0689C38.4026 39.5227 38.9042 38.1019 39.4135 36.8144C39.3281 37.5875 39.3933 38.3702 39.6092 39.1163C39.7474 39.591 39.9446 40.045 40.1962 40.4673C41.749 38.8591 43.1435 37.0986 44.3578 35.211C46.7461 31.4994 48.0132 27.9466 48.7166 25.3018Z" fill="white"/>
<path d="M23.7786 42.2818C22.6574 42.0262 21.603 41.5246 20.6884 40.8134C20.721 40.634 20.7521 40.4514 20.7831 40.2689C20.8546 39.845 20.9198 39.4291 20.9788 39.0179C21.1807 39.4354 21.5332 39.7561 21.9617 39.9117C22.086 39.7418 22.2242 39.5688 22.3779 39.3942C22.8546 38.8592 23.409 38.402 24.0208 38.0368C24.3252 39.4465 24.2398 40.9166 23.7786 42.2818Z" fill="white"/>
<path d="M25.5772 40.9136C25.0027 41.4025 24.4017 41.8597 23.7791 42.282C24.1269 40.8501 24.2558 39.4324 24.0213 38.0354C24.3412 37.9259 24.6518 37.7862 24.9452 37.6147C25.5524 37.2591 26.0835 36.7829 26.509 36.213C26.6378 37.1051 26.7046 38.5767 26.0229 40.0912C25.894 40.377 25.745 40.6516 25.5772 40.9136Z" fill="white"/>
<path d="M22.2054 48.9571C20.8622 48.8984 19.5516 48.511 18.3839 47.8268C19.5019 46.7061 20.1665 45.1963 20.2442 43.5977C20.5454 43.8581 20.8746 44.0851 21.224 44.274C22.1169 44.7566 22.9601 44.8852 23.5067 44.9185C23.4446 46.36 22.9942 47.7586 22.2054 48.9571Z" fill="white"/>
<path d="M23.8423 48.8777C23.3019 48.9697 22.7522 48.9967 22.204 48.957C22.8997 47.6648 23.3811 46.3281 23.5053 44.9168C24.538 44.8105 25.524 44.4279 26.3657 43.8087C26.5349 44.4295 26.6902 45.3883 26.4371 46.4742C26.2973 47.0742 26.1265 47.7997 25.5069 48.3014C25.052 48.6713 24.5535 48.7554 23.8423 48.8777Z" fill="white"/>
</g>
<defs>
<clipPath id="clip0_6_673">
<rect width="48.7158" height="48.7158" fill="white" transform="translate(0 0.258789)"/>
</clipPath>
</defs>
</svg>
