<svg width="29" height="29" viewBox="0 0 29 29" fill="none" xmlns="http://www.w3.org/2000/svg">
<path fill-rule="evenodd" clip-rule="evenodd" d="M23.1071 15.631C23.1506 15.2685 23.1796 14.8915 23.1796 14.5C23.1796 14.1085 23.1506 13.7315 23.0926 13.369L25.5431 11.455C25.7606 11.281 25.8186 10.962 25.6881 10.7155L23.3681 6.69899C23.2231 6.43799 22.9186 6.35099 22.6576 6.43799L19.7721 7.59799C19.1631 7.13399 18.5251 6.75699 17.8146 6.46699L17.3796 3.39299C17.3361 3.10299 17.0896 2.89999 16.7996 2.89999H12.1596C11.8696 2.89999 11.6376 3.10299 11.5941 3.39299L11.1591 6.46699C10.4486 6.75699 9.7961 7.14849 9.2016 7.59799L6.3161 6.43799C6.0551 6.33649 5.7506 6.43799 5.6056 6.69899L3.2856 10.7155C3.1406 10.9765 3.1986 11.281 3.4306 11.455L5.8811 13.369C5.8231 13.7315 5.7796 14.123 5.7796 14.5C5.7796 14.877 5.8086 15.2685 5.8666 15.631L3.4161 17.545C3.1986 17.719 3.1406 18.038 3.2711 18.2845L5.5911 22.301C5.7361 22.562 6.0406 22.649 6.3016 22.562L9.1871 21.402C9.7961 21.866 10.4341 22.243 11.1446 22.533L11.5796 25.607C11.6376 25.897 11.8696 26.1 12.1596 26.1H16.7996C17.0896 26.1 17.3361 25.897 17.3651 25.607L17.8001 22.533C18.5106 22.243 19.1631 21.8515 19.7576 21.402L22.6431 22.562C22.9041 22.6635 23.2086 22.562 23.3536 22.301L25.6736 18.2845C25.8186 18.0235 25.7606 17.719 25.5286 17.545L23.1071 15.631V15.631ZM14.4796 18.85C12.0871 18.85 10.1296 16.8925 10.1296 14.5C10.1296 12.1075 12.0871 10.15 14.4796 10.15C16.8721 10.15 18.8296 12.1075 18.8296 14.5C18.8296 16.8925 16.8721 18.85 14.4796 18.85Z" fill="#FF9900"/>
</svg>
